<svg xmlns="http://www.w3.org/2000/svg" width="270.54" height="74.75" viewBox="0 0 270.54 74.75">
  <defs>
    <style>
      .cls-1 {fill: #4f7838;}
      .cls-2 {fill: #6c9c40;}
      .cls-3 {fill: #94bb46;}
      .cls-4 {fill: #312e2b;}
    </style>
  </defs>
  <g>
    <g>
      <path class="cls-1" d="M38.09,59.69a25.13,25.13,0,0,1-7.72-18.47,26.37,26.37,0,0,1,1.38-8.52v-.08h0a24.55,24.55,0,0,1,4.57-8l-4.27-2.81A12,12,0,0,0,29.54.87C28.14.31,18.31,32.62,18.31,32.62c0,.74,0,1.71,0,2.88,0,3.21,7.89,2.72,7.47,5.56C25.1,45.3,25,48.52,21.32,58.7c-2.46,6.88-18.9,0-20.07,3.38A23.71,23.71,0,0,0,0,69.9c0,.3.66,4.85,25,4.85s25-4.55,25-4.85A26,26,0,0,0,49.76,66,26.15,26.15,0,0,1,38.09,59.69Z"/>
      <path class="cls-2" d="M24.58,58.24c1.36-6.17,2.56-12.74,3.29-16.67.91-4.91-6.54-5.79-9.6-6.24C18.13,39.52,17,46.33,7,53.94a17.22,17.22,0,0,0-5.85,8.53C3.82,63.78,7.42,64.56,13,64.56,16.51,64.56,23.1,65,24.58,58.24Z"/>
      <path class="cls-2" d="M29.82,32.62a12.9,12.9,0,0,0,1-5.12l-4.92-5.72c5.24-2.23,8.38-6.43,8.38-11.32A12,12,0,0,0,29.57.89h0A12,12,0,0,0,18,21.78L9.29,27.5a10.16,10.16,0,0,0,1.36,5.12Z"/>
      <path class="cls-3" d="M24.34,2.45c6.94,1.08-3.2,9.13-6.4,8.75C14.91,10.84,17.83,1.44,24.34,2.45Z"/>
    </g>
    <g>
      <g>
        <g>
          <g>
            <path class="cls-4" d="M102.24,43.69V60.75a1.09,1.09,0,0,1-1.09,1.09h-7a1.09,1.09,0,0,1-1.09-1.09V45.11c0-5.13-1.46-7.49-5-7.49-4.24,0-6.3,2.71-6.3,8.55V60.75a1.09,1.09,0,0,1-1.1,1.09h-7a1.09,1.09,0,0,1-1.1-1.09V21a1.1,1.1,0,0,1,1.1-1.1h7a1.1,1.1,0,0,1,1.1,1.1V32.77c2.39-2.32,4.62-3.1,8.69-3.1C97.88,29.67,102.24,34,102.24,43.69Z"/>
            <path class="cls-4" d="M121.8,29.67c-9.67,0-15.62,6.83-15.62,16.32,0,8.26,4.8,16.32,16.23,16.32,4.9,0,9.73-.71,12.8-2.4a1,1,0,0,0,.43-1.31l-2.21-4.78a1,1,0,0,0-1.41-.45c-3.17,1.66-5,2-9.11,2s-7.47-3.47-7.69-6.78H136a.87.87,0,0,0,.87-.79c.05-.59.11-1.2.11-1.68C137,35.91,131.11,29.67,121.8,29.67Zm-6.7,13.55c.27-4,2.7-6.6,6.75-6.6s6.26,2.62,6.57,6.6Z"/>
            <path class="cls-4" d="M169.66,58.6l2.22-4.78a1,1,0,0,1,1.4-.45,18.63,18.63,0,0,0,9.26,2c4.25,0,5.84-1.12,5.84-2.89,0-5.18-19.16.12-19.16-12.55,0-6,5.43-10.25,14.68-10.25a26,26,0,0,1,11,2.39,1,1,0,0,1,.46,1.33l-2.21,4.72a1,1,0,0,1-1.36.47,17.32,17.32,0,0,0-7.92-2c-4.13,0-5.9,1.3-5.9,3,0,5.42,19.16.17,19.16,12.67,0,5.89-5.48,10.07-15,10.07-4.9,0-9-.71-12.09-2.4A1,1,0,0,1,169.66,58.6Z"/>
            <path class="cls-4" d="M197.58,59.82A2.42,2.42,0,0,1,200,57.35a2.48,2.48,0,0,1,0,5A2.45,2.45,0,0,1,197.58,59.82Z"/>
            <path class="cls-4" d="M220.72,51.8c0-6.13,4.26-10.47,10.06-10.47s10,4.34,10,10.47-4.24,10.51-10,10.51S220.72,57.93,220.72,51.8Zm16.56,0c0-4.38-2.77-7.21-6.5-7.21s-6.52,2.83-6.52,7.21,2.8,7.26,6.52,7.26S237.28,56.19,237.28,51.8Z"/>
            <path class="cls-4" d="M270.54,50.25V61.34a.74.74,0,0,1-.74.74h-2.24a.74.74,0,0,1-.74-.74V50.68c0-4-1.16-6-4.45-6-3.09,0-3.57,2.37-3.57,6.83v9.85a.74.74,0,0,1-.74.74h-2.24a.74.74,0,0,1-.74-.74V50.68c0-4-1-6-4.25-6-3,0-3.77,2.37-3.77,6.83v9.85a.75.75,0,0,1-.75.74h-2.24a.74.74,0,0,1-.74-.74V42.26a.74.74,0,0,1,.74-.74h2.09a.74.74,0,0,1,.74.74v1.09c.28-.44,1.4-2,4.5-2a6.21,6.21,0,0,1,5.79,3s1.3-3,5.8-3C268,41.33,270.54,44.2,270.54,50.25Z"/>
          </g>
          <path class="cls-4" d="M213.5,59.06c-4.05,0-6.52-2.8-6.52-7.26s2.47-7.21,6.52-7.21a6.5,6.5,0,0,1,4.77,1.91.49.49,0,0,0,.83-.35V43.24a.8.8,0,0,0-.44-.71,10.72,10.72,0,0,0-5.12-1.2c-6.34,0-10.33,4.34-10.33,10.47s4,10.51,10.33,10.51a10.5,10.5,0,0,0,5.12-1.22.8.8,0,0,0,.44-.71V57.49a.49.49,0,0,0-.83-.35A6.47,6.47,0,0,1,213.5,59.06Z"/>
        </g>
        <path class="cls-4" d="M148.79,39.52c0-1.7,1.82-3,6.06-3a17.79,17.79,0,0,1,8.15,2,1,1,0,0,0,1.4-.48l2.27-4.86a1,1,0,0,0-.47-1.36,26.83,26.83,0,0,0-11.35-2.46c-9.51,0-15.09,4.36-15.09,10.54,0,13,19.7,7.58,19.7,12.91,0,1.82-1.64,3-6,3a19.21,19.21,0,0,1-9.53-2,1,1,0,0,0-1.44.46l-2.28,4.91a1,1,0,0,0,.45,1.35c3.15,1.75,7.39,2.48,12.43,2.48,9.76,0,15.4-4.31,15.4-10.37C168.49,39.7,148.79,45.1,148.79,39.52Z"/>
      </g>
      <g>
        <g>
          <path class="cls-4" d="M102.24,43.69V60.75a1.09,1.09,0,0,1-1.09,1.09h-7a1.09,1.09,0,0,1-1.09-1.09V45.11c0-5.13-1.46-7.49-5-7.49-4.24,0-6.3,2.71-6.3,8.55V60.75a1.09,1.09,0,0,1-1.1,1.09h-7a1.09,1.09,0,0,1-1.1-1.09V21a1.1,1.1,0,0,1,1.1-1.1h7a1.1,1.1,0,0,1,1.1,1.1V32.77c2.39-2.32,4.62-3.1,8.69-3.1C97.88,29.67,102.24,34,102.24,43.69Z"/>
          <path class="cls-4" d="M57.56,54.42c-7.72,0-13.2-5.42-13.2-13.2S49.84,28,57.56,28A13,13,0,0,1,66,31a1.19,1.19,0,0,0,2-.91V23.18a1.39,1.39,0,0,0-.82-1.27,24.2,24.2,0,0,0-10-2c-12.85,0-22.4,8.9-22.4,21.34S44.24,62.55,57,62.55a24.26,24.26,0,0,0,10.08-2,1.39,1.39,0,0,0,.82-1.27V52.35a1.18,1.18,0,0,0-2-.9A12.89,12.89,0,0,1,57.56,54.42Z"/>
          <path class="cls-4" d="M121.8,29.67c-9.67,0-15.62,6.83-15.62,16.32,0,8.26,4.8,16.32,16.23,16.32,4.9,0,9.73-.71,12.8-2.4a1,1,0,0,0,.43-1.31l-2.21-4.78a1,1,0,0,0-1.41-.45c-3.17,1.66-5,2-9.11,2s-7.47-3.47-7.69-6.78H136a.87.87,0,0,0,.87-.79c.05-.59.11-1.2.11-1.68C137,35.91,131.11,29.67,121.8,29.67Zm-6.7,13.55c.27-4,2.7-6.6,6.75-6.6s6.26,2.62,6.57,6.6Z"/>
          <path class="cls-4" d="M169.66,58.6l2.22-4.78a1,1,0,0,1,1.4-.45,18.63,18.63,0,0,0,9.26,2c4.25,0,5.84-1.12,5.84-2.89,0-5.18-19.16.12-19.16-12.55,0-6,5.43-10.25,14.68-10.25a26,26,0,0,1,11,2.39,1,1,0,0,1,.46,1.33l-2.21,4.72a1,1,0,0,1-1.36.47,17.32,17.32,0,0,0-7.92-2c-4.13,0-5.9,1.3-5.9,3,0,5.42,19.16.17,19.16,12.67,0,5.89-5.48,10.07-15,10.07-4.9,0-9-.71-12.09-2.4A1,1,0,0,1,169.66,58.6Z"/>
          <path class="cls-4" d="M197.58,59.82A2.42,2.42,0,0,1,200,57.35a2.48,2.48,0,0,1,0,5A2.45,2.45,0,0,1,197.58,59.82Z"/>
          <path class="cls-4" d="M220.72,51.8c0-6.13,4.26-10.47,10.06-10.47s10,4.34,10,10.47-4.24,10.51-10,10.51S220.72,57.93,220.72,51.8Zm16.56,0c0-4.38-2.77-7.21-6.5-7.21s-6.52,2.83-6.52,7.21,2.8,7.26,6.52,7.26S237.28,56.19,237.28,51.8Z"/>
          <path class="cls-4" d="M270.54,50.25V61.34a.74.74,0,0,1-.74.74h-2.24a.74.74,0,0,1-.74-.74V50.68c0-4-1.16-6-4.45-6-3.09,0-3.57,2.37-3.57,6.83v9.85a.74.74,0,0,1-.74.74h-2.24a.74.74,0,0,1-.74-.74V50.68c0-4-1-6-4.25-6-3,0-3.77,2.37-3.77,6.83v9.85a.75.75,0,0,1-.75.74h-2.24a.74.74,0,0,1-.74-.74V42.26a.74.74,0,0,1,.74-.74h2.09a.74.74,0,0,1,.74.74v1.09c.28-.44,1.4-2,4.5-2a6.21,6.21,0,0,1,5.79,3s1.3-3,5.8-3C268,41.33,270.54,44.2,270.54,50.25Z"/>
        </g>
        <path class="cls-4" d="M213.5,59.06c-4.05,0-6.52-2.8-6.52-7.26s2.47-7.21,6.52-7.21a6.5,6.5,0,0,1,4.77,1.91.49.49,0,0,0,.83-.35V43.24a.8.8,0,0,0-.44-.71,10.72,10.72,0,0,0-5.12-1.2c-6.34,0-10.33,4.34-10.33,10.47s4,10.51,10.33,10.51a10.5,10.5,0,0,0,5.12-1.22.8.8,0,0,0,.44-.71V57.49a.49.49,0,0,0-.83-.35A6.47,6.47,0,0,1,213.5,59.06Z"/>
      </g>
      <path class="cls-4" d="M148.79,39.52c0-1.7,1.82-3,6.06-3a17.79,17.79,0,0,1,8.15,2,1,1,0,0,0,1.4-.48l2.27-4.86a1,1,0,0,0-.47-1.36,26.83,26.83,0,0,0-11.35-2.46c-9.51,0-15.09,4.36-15.09,10.54,0,13,19.7,7.58,19.7,12.91,0,1.82-1.64,3-6,3a19.21,19.21,0,0,1-9.53-2,1,1,0,0,0-1.44.46l-2.28,4.91a1,1,0,0,0,.45,1.35c3.15,1.75,7.39,2.48,12.43,2.48,9.76,0,15.4-4.31,15.4-10.37C168.49,39.7,148.79,45.1,148.79,39.52Z"/>
    </g>
  </g>
</svg>
